STARTFONT 2.1
FONT -FontForge-Roboto Medium-Medium-R-Normal--33-250-96-96-P-174-ISO10646-1
SIZE 25 96 96
FONTBOUNDINGBOX 29 35 -1 -7
COMMENT "Generated by fontforge, http://fontforge.sourceforge.net"
COMMENT "Copyright 2011 Google Inc. All Rights Reserved."
STARTPROPERTIES 40
FOUNDRY "FontForge"
FAMILY_NAME "Roboto Medium"
WEIGHT_NAME "Medium"
SLANT "R"
SETWIDTH_NAME "Normal"
ADD_STYLE_NAME ""
PIXEL_SIZE 33
POINT_SIZE 250
RESOLUTION_X 96
RESOLUTION_Y 96
SPACING "P"
AVERAGE_WIDTH 174
CHARSET_REGISTRY "ISO10646"
CHARSET_ENCODING "1"
FONTNAME_REGISTRY ""
CHARSET_COLLECTIONS "ISO10646-1"
FONT_NAME "Roboto-Medium"
FACE_NAME "Roboto Medium"
COPYRIGHT "Copyright 2011 Google Inc. All Rights Reserved."
FONT_VERSION "2.137; 2017"
FONT_ASCENT 25
FONT_DESCENT 8
UNDERLINE_POSITION -3
UNDERLINE_THICKNESS 2
X_HEIGHT 17
CAP_HEIGHT 23
RAW_ASCENT 750
RAW_DESCENT 250
NORM_SPACE 8
RELATIVE_WEIGHT 50
RELATIVE_SETWIDTH 50
SUPERSCRIPT_X 0
SUPERSCRIPT_Y 15
SUPERSCRIPT_SIZE 21
SUBSCRIPT_X 0
SUBSCRIPT_Y 4
SUBSCRIPT_SIZE 21
FIGURE_WIDTH 19
AVG_LOWERCASE_WIDTH 166
AVG_UPPERCASE_WIDTH 210
ENDPROPERTIES
CHARS 89
STARTCHAR space
ENCODING 32
SWIDTH 249 0
DWIDTH 8 0
BBX 1 1 0 0
BITMAP
00
ENDCHAR
STARTCHAR exclam
ENCODING 33
SWIDTH 268 0
DWIDTH 9 0
BBX 5 24 2 0
BITMAP
F8
78
78
78
78
78
70
70
70
70
70
70
70
70
70
70
70
00
00
00
70
F8
F8
70
ENDCHAR
STARTCHAR quotedbl
ENCODING 34
SWIDTH 324 0
DWIDTH 11 0
BBX 7 8 2 17
BITMAP
CE
CE
CE
CE
CE
CE
CE
CE
ENDCHAR
STARTCHAR numbersign
ENCODING 35
SWIDTH 610 0
DWIDTH 20 0
BBX 18 24 2 0
BITMAP
038600
038E00
038E00
038E00
030E00
070C00
070C00
7FFFC0
7FFFC0
7FFFC0
061C00
0E1800
0E1800
0E3800
0E3800
FFFF00
FFFF00
FFFF00
1C7000
1C7000
187000
187000
386000
38E000
ENDCHAR
STARTCHAR dollar
ENCODING 36
SWIDTH 568 0
DWIDTH 19 0
BBX 15 31 2 -3
BITMAP
0180
0180
0180
0180
07E0
1FF8
3FFC
7C3C
783E
781E
781E
781E
7800
3E00
3F80
1FE0
07F8
00FC
003E
001E
001E
F01E
F01E
F01E
7C3E
7FFC
3FF8
0FE0
0380
0380
0380
ENDCHAR
STARTCHAR percent
ENCODING 37
SWIDTH 734 0
DWIDTH 24 0
BBX 22 24 1 0
BITMAP
1F0000
3F8000
71C000
61C180
E0C1C0
E0C380
E0C700
61C700
71CE00
3F8C00
1F1C00
003800
003000
0073E0
00E7F0
00CE38
01CE1C
038E1C
038E1C
070E1C
0E0E1C
060E38
0007F0
0003E0
ENDCHAR
STARTCHAR ampersand
ENCODING 38
SWIDTH 639 0
DWIDTH 21 0
BBX 20 24 1 0
BITMAP
03E000
0FF800
1FFC00
1E3C00
3C1C00
3C1C00
3C1C00
3C3C00
1E7800
1FF000
0FE000
0FC000
1FC000
3FE1C0
7DF1C0
78F9C0
F07FC0
F03FC0
F01F80
780F80
7C3F80
3FFFC0
1FFFE0
07F1F0
ENDCHAR
STARTCHAR quotesingle
ENCODING 39
SWIDTH 168 0
DWIDTH 6 0
BBX 3 8 1 17
BITMAP
E0
E0
E0
E0
E0
E0
E0
E0
ENDCHAR
STARTCHAR parenleft
ENCODING 40
SWIDTH 348 0
DWIDTH 12 0
BBX 9 33 2 -7
BITMAP
0180
0380
0780
0F00
0E00
1C00
3C00
3800
3800
7800
7000
7000
7000
F000
F000
F000
F000
F000
F000
F000
7000
7000
7000
7800
3800
3800
3C00
1C00
0E00
0F00
0780
0380
0180
ENDCHAR
STARTCHAR parenright
ENCODING 41
SWIDTH 352 0
DWIDTH 12 0
BBX 9 33 1 -7
BITMAP
C000
E000
F000
7800
3800
1C00
1E00
0E00
0E00
0F00
0F00
0700
0700
0780
0780
0780
0780
0780
0780
0780
0700
0700
0F00
0F00
0E00
0E00
1E00
1C00
3800
7800
F000
E000
8000
ENDCHAR
STARTCHAR asterisk
ENCODING 42
SWIDTH 441 0
DWIDTH 15 0
BBX 14 14 0 10
BITMAP
0380
0380
0380
0380
739C
7FFC
BFF8
0780
07C0
0EE0
1CF0
3C70
1830
0040
ENDCHAR
STARTCHAR plus
ENCODING 43
SWIDTH 557 0
DWIDTH 18 0
BBX 16 17 1 3
BITMAP
03C0
03C0
03C0
03C0
03C0
03C0
03C0
FFFF
FFFF
FFFF
03C0
03C0
03C0
03C0
03C0
03C0
03C0
ENDCHAR
STARTCHAR comma
ENCODING 44
SWIDTH 219 0
DWIDTH 7 0
BBX 5 9 0 -5
BITMAP
38
38
38
38
38
78
70
F0
60
ENDCHAR
STARTCHAR hyphen
ENCODING 45
SWIDTH 328 0
DWIDTH 11 0
BBX 9 3 1 9
BITMAP
FF80
FF80
FF80
ENDCHAR
STARTCHAR period
ENCODING 46
SWIDTH 279 0
DWIDTH 9 0
BBX 5 4 2 0
BITMAP
70
F8
F8
70
ENDCHAR
STARTCHAR slash
ENCODING 47
SWIDTH 395 0
DWIDTH 13 0
BBX 12 26 0 -2
BITMAP
0070
0070
00E0
00E0
00E0
01C0
01C0
01C0
0380
0380
0380
0700
0700
0F00
0E00
0E00
1E00
1C00
1C00
3800
3800
3800
7000
7000
7000
E000
ENDCHAR
STARTCHAR zero
ENCODING 48
SWIDTH 568 0
DWIDTH 19 0
BBX 15 24 2 0
BITMAP
0FC0
1FF0
3FF8
7C7C
783C
F01E
F01E
F01E
F01E
F01E
F01E
F01E
F01E
F01E
F01E
F01E
F01E
F01E
F01E
783C
7C7C
3FF8
1FF0
07C0
ENDCHAR
STARTCHAR one
ENCODING 49
SWIDTH 568 0
DWIDTH 19 0
BBX 9 24 3 0
BITMAP
0180
0F80
7F80
FF80
FF80
8780
0780
0780
0780
0780
0780
0780
0780
0780
0780
0780
0780
0780
0780
0780
0780
0780
0780
0780
ENDCHAR
STARTCHAR two
ENCODING 50
SWIDTH 568 0
DWIDTH 19 0
BBX 17 24 1 0
BITMAP
07F000
1FF800
3FFC00
7C3E00
781E00
780F00
F00F00
000F00
000E00
001E00
003E00
003C00
007800
00F800
01F000
03E000
07C000
0F8000
1F0000
3E0000
3C0000
7FFF80
7FFF80
7FFF80
ENDCHAR
STARTCHAR three
ENCODING 51
SWIDTH 568 0
DWIDTH 19 0
BBX 16 24 1 0
BITMAP
07E0
1FF8
3FFC
7C3E
781E
780F
000F
000E
001E
003E
07FC
07F0
07FC
003E
001E
000F
000F
000F
F00F
781F
7C3E
3FFC
1FF8
07E0
ENDCHAR
STARTCHAR four
ENCODING 52
SWIDTH 568 0
DWIDTH 19 0
BBX 17 24 1 0
BITMAP
003C00
007C00
00FC00
00FC00
01FC00
03FC00
03BC00
07BC00
0F3C00
0F3C00
1E3C00
1C3C00
3C3C00
783C00
703C00
FFFF80
FFFF80
FFFF80
003C00
003C00
003C00
003C00
003C00
003C00
ENDCHAR
STARTCHAR five
ENCODING 53
SWIDTH 568 0
DWIDTH 19 0
BBX 16 24 2 0
BITMAP
3FFE
3FFE
3FFE
3800
3800
3800
7800
7800
7BE0
7FF8
7FFC
787E
001E
001E
001E
000F
000F
F01E
F01E
781E
7C3C
3FFC
1FF8
07E0
ENDCHAR
STARTCHAR six
ENCODING 54
SWIDTH 568 0
DWIDTH 19 0
BBX 16 24 2 0
BITMAP
00F0
07F0
0FF0
1F80
3E00
3C00
7800
7800
73E0
FFF8
FFFC
FC3E
F81E
F01E
F01E
F00F
F00F
F01E
781E
781E
3C3C
3FFC
1FF8
07E0
ENDCHAR
STARTCHAR seven
ENCODING 55
SWIDTH 568 0
DWIDTH 19 0
BBX 16 24 1 0
BITMAP
FFFF
FFFF
FFFF
000F
000E
001E
001C
003C
003C
0078
0078
00F0
00F0
00E0
01E0
01E0
03C0
03C0
0780
0780
0F80
0F00
0F00
1E00
ENDCHAR
STARTCHAR eight
ENCODING 56
SWIDTH 568 0
DWIDTH 19 0
BBX 15 24 2 0
BITMAP
0FE0
1FF0
3FF8
7C7C
783C
F01E
F01E
F01E
783C
7C7C
3FF8
0FE0
3FF8
7C7C
F03E
F01E
F01E
F01E
F01E
F01E
7C3C
7FFC
3FF8
0FE0
ENDCHAR
STARTCHAR nine
ENCODING 57
SWIDTH 568 0
DWIDTH 19 0
BBX 15 24 2 0
BITMAP
0FC0
1FF0
7FF8
7878
F03C
F03C
F01E
E01E
E01E
F01E
F01E
F03E
787E
7FFE
3FDE
0F9C
003C
003C
0038
0078
01F0
1FE0
1FC0
1E00
ENDCHAR
STARTCHAR colon
ENCODING 58
SWIDTH 265 0
DWIDTH 9 0
BBX 5 18 2 0
BITMAP
70
F0
F8
70
00
00
00
00
00
00
00
00
00
00
70
F0
F8
70
ENDCHAR
STARTCHAR semicolon
ENCODING 59
SWIDTH 237 0
DWIDTH 8 0
BBX 5 23 1 -5
BITMAP
78
78
78
78
00
00
00
00
00
00
00
00
00
00
78
78
78
78
78
70
F0
E0
40
ENDCHAR
STARTCHAR less
ENCODING 60
SWIDTH 508 0
DWIDTH 17 0
BBX 14 15 1 3
BITMAP
000C
003C
00FC
03FC
1FF0
7F80
FE00
F000
FE00
7F80
1FF0
07FC
00FC
003C
000C
ENDCHAR
STARTCHAR equal
ENCODING 61
SWIDTH 559 0
DWIDTH 18 0
BBX 14 10 2 6
BITMAP
FFFC
FFFC
FFFC
0000
0000
0000
0000
FFFC
FFFC
FFFC
ENDCHAR
STARTCHAR greater
ENCODING 62
SWIDTH 520 0
DWIDTH 17 0
BBX 14 15 2 3
BITMAP
8000
E000
FC00
FF00
3FC0
0FF8
01FC
003C
01FC
07F8
3FE0
FF00
FC00
F000
8000
ENDCHAR
STARTCHAR question
ENCODING 63
SWIDTH 486 0
DWIDTH 16 0
BBX 14 24 1 0
BITMAP
0FC0
3FF0
7FF8
7878
F03C
F03C
003C
003C
0078
00F8
01F0
01E0
03C0
0780
0780
0700
0700
0000
0000
0000
0700
0F80
0F80
0700
ENDCHAR
STARTCHAR at
ENCODING 64
SWIDTH 894 0
DWIDTH 30 0
BBX 26 30 2 -7
BITMAP
003FC000
00FFF000
03E07C00
07001E00
0E000700
1C000300
38000380
380F8180
703FE1C0
7078E1C0
6070E0C0
E0E0E0C0
E0E0E0C0
E1C0E0C0
E1C0C0C0
E1C1C0C0
E1C1C0C0
E1C1C1C0
E1C1C1C0
E1C3C180
E1E3C300
60FEFF00
70787C00
70000000
38000000
3C000000
1E000000
0F80C000
03FFE000
00FF8000
ENDCHAR
STARTCHAR A
ENCODING 65
SWIDTH 665 0
DWIDTH 22 0
BBX 22 24 0 0
BITMAP
007800
007800
00FC00
00FC00
01FC00
01FE00
01FE00
03CF00
03CF00
038F00
078780
078780
070380
0F03C0
0F03C0
1FFFE0
1FFFE0
1FFFE0
3C00F0
3C00F0
3C00F0
780078
780078
F8007C
ENDCHAR
STARTCHAR B
ENCODING 66
SWIDTH 630 0
DWIDTH 21 0
BBX 17 24 2 0
BITMAP
FFF000
FFFC00
FFFE00
F81F00
F80F00
F80780
F80780
F80F80
F80F00
F81F00
FFFE00
FFFC00
FFFE00
F81F00
F80780
F80780
F80780
F80780
F80780
F80F80
F81F00
FFFF00
FFFE00
FFF800
ENDCHAR
STARTCHAR C
ENCODING 67
SWIDTH 652 0
DWIDTH 22 0
BBX 19 24 2 0
BITMAP
03F800
0FFE00
1FFF00
3E0F80
7C07C0
7803C0
7803C0
F003C0
F00020
F00000
F00000
F00000
F00000
F00000
F00000
F00000
F003E0
7803C0
7803C0
7C07C0
3E0F80
1FFF00
0FFE00
03F800
ENDCHAR
STARTCHAR D
ENCODING 68
SWIDTH 653 0
DWIDTH 22 0
BBX 17 24 3 0
BITMAP
FFC000
FFF000
FFF800
F07C00
F01E00
F00F00
F00F00
F00F80
F00780
F00780
F00780
F00780
F00780
F00780
F00780
F00780
F00F80
F00F00
F01F00
F01E00
F07C00
FFF800
FFF000
FFC000
ENDCHAR
STARTCHAR E
ENCODING 69
SWIDTH 565 0
DWIDTH 19 0
BBX 16 24 2 0
BITMAP
FFFF
FFFF
FFFF
F000
F000
F000
F000
F000
F000
F000
FFFC
FFFC
FFFC
F000
F000
F000
F000
F000
F000
F000
F000
FFFF
FFFF
FFFF
ENDCHAR
STARTCHAR F
ENCODING 70
SWIDTH 549 0
DWIDTH 18 0
BBX 15 24 2 0
BITMAP
FFFE
FFFE
FFFE
F000
F000
F000
F000
F000
F000
F000
FFFC
FFFC
FFFC
F000
F000
F000
F000
F000
F000
F000
F000
F000
F000
F000
ENDCHAR
STARTCHAR G
ENCODING 71
SWIDTH 680 0
DWIDTH 22 0
BBX 19 24 1 0
BITMAP
01FC00
07FF00
1FFF80
1F07C0
3C03C0
7C01E0
7801E0
780000
780000
780000
F80000
F80000
F83FE0
F83FE0
783FE0
7801E0
7801E0
7801E0
3C01E0
3E01E0
1F03E0
0FFFC0
07FF80
01FC00
ENDCHAR
STARTCHAR H
ENCODING 72
SWIDTH 710 0
DWIDTH 23 0
BBX 19 24 2 0
BITMAP
F001E0
F001E0
F001E0
F001E0
F001E0
F001E0
F001E0
F001E0
F001E0
F001E0
FFFFE0
FFFFE0
FFFFE0
F001E0
F001E0
F001E0
F001E0
F001E0
F001E0
F001E0
F001E0
F001E0
F001E0
F001E0
ENDCHAR
STARTCHAR I
ENCODING 73
SWIDTH 282 0
DWIDTH 9 0
BBX 4 24 3 0
BITMAP
F0
F0
F0
F0
F0
F0
F0
F0
F0
F0
F0
F0
F0
F0
F0
F0
F0
F0
F0
F0
F0
F0
F0
F0
ENDCHAR
STARTCHAR J
ENCODING 74
SWIDTH 555 0
DWIDTH 18 0
BBX 15 24 1 0
BITMAP
001E
001E
001E
001E
001E
001E
001E
001E
001E
001E
001E
001E
001E
001E
001E
001E
001E
F01E
F01E
F03C
F87C
7FF8
3FF0
0FC0
ENDCHAR
STARTCHAR K
ENCODING 75
SWIDTH 630 0
DWIDTH 21 0
BBX 19 24 2 0
BITMAP
F007E0
F00F80
F00F00
F01F00
F03E00
F07C00
F0F800
F1F000
F1F000
F3E000
F7C000
FFC000
FFE000
FFF000
FCF000
F8F800
F87C00
F03E00
F03E00
F01F00
F00F80
F00F80
F007C0
F003E0
ENDCHAR
STARTCHAR L
ENCODING 76
SWIDTH 541 0
DWIDTH 18 0
BBX 15 24 2 0
BITMAP
F000
F000
F000
F000
F000
F000
F000
F000
F000
F000
F000
F000
F000
F000
F000
F000
F000
F000
F000
F000
F000
FFFE
FFFE
FFFE
ENDCHAR
STARTCHAR M
ENCODING 77
SWIDTH 875 0
DWIDTH 29 0
BBX 24 24 2 0
BITMAP
FC001F
FC001F
FE003F
FE003F
FE003F
FF007F
FF0077
F700F7
F780F7
F380E7
F3C1E7
F3C1E7
F1C1C7
F1E3CF
F1E38F
F0E78F
F0F78F
F0770F
F07F0F
F07F0F
F03E0F
F03E0F
F03C0F
F01C0F
ENDCHAR
STARTCHAR N
ENCODING 78
SWIDTH 709 0
DWIDTH 23 0
BBX 19 24 2 0
BITMAP
F001E0
F801E0
FC01E0
FC01E0
FE01E0
FF01E0
FF01E0
FF81E0
F781E0
F3C1E0
F3E1E0
F1E1E0
F0F1E0
F0F1E0
F079E0
F07DE0
F03DE0
F01FE0
F01FE0
F00FE0
F00FE0
F007E0
F003E0
F003E0
ENDCHAR
STARTCHAR O
ENCODING 79
SWIDTH 690 0
DWIDTH 23 0
BBX 19 24 2 0
BITMAP
03F800
0FFE00
1FFF00
3E0F80
7C07C0
7803C0
F803C0
F001E0
F001E0
F001E0
F001E0
F001E0
F001E0
F001E0
F001E0
F001E0
F001E0
F803C0
7803C0
7C07C0
3E0F80
1FFF00
0FFE00
03F800
ENDCHAR
STARTCHAR P
ENCODING 80
SWIDTH 639 0
DWIDTH 21 0
BBX 18 24 2 0
BITMAP
FFF800
FFFE00
FFFF00
F00F80
F00780
F007C0
F003C0
F003C0
F003C0
F007C0
F00780
F00F80
FFFF00
FFFE00
FFF800
F00000
F00000
F00000
F00000
F00000
F00000
F00000
F00000
F00000
ENDCHAR
STARTCHAR Q
ENCODING 81
SWIDTH 690 0
DWIDTH 23 0
BBX 19 28 2 -4
BITMAP
03F800
0FFE00
1FFF00
3E0F80
7C0780
7803C0
F803C0
F001E0
F001E0
F001E0
F001E0
F001E0
F001E0
F001E0
F001E0
F001E0
F001E0
F803C0
7803C0
7C07C0
3E0F80
1FFF00
0FFE00
03FF80
000FC0
0003E0
0001C0
000080
ENDCHAR
STARTCHAR R
ENCODING 82
SWIDTH 624 0
DWIDTH 21 0
BBX 17 24 3 0
BITMAP
FFF000
FFFC00
FFFE00
F03F00
F01F00
F00F00
F00F00
F00F00
F00F00
F01F00
F03E00
FFFE00
FFF800
FFF000
F0F800
F07800
F07C00
F03C00
F03E00
F01E00
F01F00
F00F00
F00F80
F00780
ENDCHAR
STARTCHAR S
ENCODING 83
SWIDTH 603 0
DWIDTH 20 0
BBX 18 24 1 0
BITMAP
03F800
0FFE00
1FFF00
3E0F80
7C0780
7807C0
7803C0
780000
7C0000
3E0000
1FC000
0FF800
03FE00
00FF00
001F80
000780
0007C0
F003C0
F803C0
7807C0
7E0F80
3FFF00
0FFE00
03F800
ENDCHAR
STARTCHAR T
ENCODING 84
SWIDTH 606 0
DWIDTH 20 0
BBX 18 24 1 0
BITMAP
FFFFC0
FFFFC0
FFFFC0
01E000
01E000
01E000
01E000
01E000
01E000
01E000
01E000
01E000
01E000
01E000
01E000
01E000
01E000
01E000
01E000
01E000
01E000
01E000
01E000
01E000
ENDCHAR
STARTCHAR U
ENCODING 85
SWIDTH 651 0
DWIDTH 22 0
BBX 18 24 2 0
BITMAP
F003C0
F003C0
F003C0
F003C0
F003C0
F003C0
F003C0
F003C0
F003C0
F003C0
F003C0
F003C0
F003C0
F003C0
F003C0
F003C0
F003C0
F003C0
780780
780780
7E1F80
3FFF00
1FFC00
07F000
ENDCHAR
STARTCHAR V
ENCODING 86
SWIDTH 646 0
DWIDTH 21 0
BBX 21 24 0 0
BITMAP
F800F8
7800F0
7800F0
7C01F0
3C01E0
3C01E0
3E03E0
1E03C0
1E03C0
1F07C0
0F0780
0F0780
0F0F80
078F00
078F00
039E00
03DE00
03DE00
01DC00
01FC00
01FC00
00F800
00F800
00F800
ENDCHAR
STARTCHAR W
ENCODING 87
SWIDTH 879 0
DWIDTH 29 0
BBX 27 24 1 0
BITMAP
F00E01E0
F00F01E0
F01F01E0
701F01E0
781F03C0
781F83C0
783F83C0
783B83C0
3C3B83C0
3C3BC780
3C79C780
3C71C780
1C71C780
1E71E700
1EF0EF00
1EE0EF00
1EE0EF00
0EE0FE00
0FE07E00
0FC07E00
0FC07E00
07C07E00
07C03C00
07803C00
ENDCHAR
STARTCHAR X
ENCODING 88
SWIDTH 632 0
DWIDTH 21 0
BBX 19 24 1 0
BITMAP
F803E0
7803C0
7C07C0
3E0F80
3E0F00
1F1F00
0F1E00
0FBE00
07BC00
07F800
03F800
01F000
01F000
03F800
07FC00
07BC00
0FBE00
0F1E00
1F1F00
3E0F80
3C0F80
7C07C0
7803C0
F803E0
ENDCHAR
STARTCHAR Y
ENCODING 89
SWIDTH 609 0
DWIDTH 20 0
BBX 20 24 0 0
BITMAP
F801F0
7801E0
7C03E0
3C03C0
3E07C0
1E0780
1F0F80
0F0F00
079F00
079E00
03FE00
03FC00
01F800
01F800
00F000
00F000
00F000
00F000
00F000
00F000
00F000
00F000
00F000
00F000
ENDCHAR
STARTCHAR Z
ENCODING 90
SWIDTH 602 0
DWIDTH 20 0
BBX 18 24 1 0
BITMAP
FFFF80
FFFF80
FFFF80
000F80
001F00
001E00
003E00
007C00
007800
00F800
00F000
01E000
03E000
03C000
078000
0F8000
0F0000
1F0000
3E0000
3C0000
7C0000
FFFFC0
FFFFC0
FFFFC0
ENDCHAR
STARTCHAR bracketleft
ENCODING 91
SWIDTH 273 0
DWIDTH 9 0
BBX 7 32 2 -5
BITMAP
FE
FE
FE
F0
F0
F0
F0
F0
F0
F0
F0
F0
F0
F0
F0
F0
F0
F0
F0
F0
F0
F0
F0
F0
F0
F0
F0
F0
F0
FE
FE
FE
ENDCHAR
STARTCHAR backslash
ENCODING 92
SWIDTH 417 0
DWIDTH 14 0
BBX 14 26 0 -2
BITMAP
F000
7800
7800
3C00
3C00
3C00
1E00
1E00
0E00
0F00
0F00
0780
0780
0780
03C0
03C0
01C0
01E0
01E0
00F0
00F0
00F0
0078
0078
0038
003C
ENDCHAR
STARTCHAR bracketright
ENCODING 93
SWIDTH 273 0
DWIDTH 9 0
BBX 7 32 0 -5
BITMAP
FE
FE
FE
1E
1E
1E
1E
1E
1E
1E
1E
1E
1E
1E
1E
1E
1E
1E
1E
1E
1E
1E
1E
1E
1E
1E
1E
1E
1E
FE
FE
FE
ENDCHAR
STARTCHAR underscore
ENCODING 95
SWIDTH 451 0
DWIDTH 15 0
BBX 15 3 0 -3
BITMAP
FFFE
FFFE
FFFE
ENDCHAR
STARTCHAR a
ENCODING 97
SWIDTH 541 0
DWIDTH 18 0
BBX 15 18 2 0
BITMAP
0FC0
3FF0
7FF8
F878
F03C
003C
003C
0FFC
3FFC
7FFC
F83C
F03C
E03C
F03C
F0FC
FFFC
7FFC
1F3E
ENDCHAR
STARTCHAR b
ENCODING 98
SWIDTH 562 0
DWIDTH 19 0
BBX 16 25 2 0
BITMAP
F000
F000
F000
F000
F000
F000
F000
F3E0
F7F8
FFFC
FC3C
F81E
F01E
F01E
F00E
F00F
F00F
F00E
F01E
F01E
F81E
FC3C
FFFC
F7F8
F3E0
ENDCHAR
STARTCHAR c
ENCODING 99
SWIDTH 523 0
DWIDTH 17 0
BBX 15 18 1 0
BITMAP
07E0
1FF8
3FFC
7C3C
781E
781E
F01E
F000
F000
F000
F000
F000
781E
781E
7C3C
3FFC
1FF8
07E0
ENDCHAR
STARTCHAR d
ENCODING 100
SWIDTH 564 0
DWIDTH 19 0
BBX 16 25 1 0
BITMAP
000F
000F
000F
000F
000F
000F
000F
07CF
1FEF
3FFF
3C3F
781F
780F
780F
F00F
F00F
F00F
F00F
780F
780F
781F
3C3F
3FFF
1FEF
07CF
ENDCHAR
STARTCHAR e
ENCODING 101
SWIDTH 536 0
DWIDTH 18 0
BBX 16 18 1 0
BITMAP
03E0
0FF8
1FFC
3C3E
781E
780F
780F
7FFF
FFFF
FFFF
7000
7800
7800
7C04
3E1E
1FFF
0FFC
03F0
ENDCHAR
STARTCHAR f
ENCODING 102
SWIDTH 354 0
DWIDTH 12 0
BBX 11 25 1 0
BITMAP
03E0
0FE0
1FE0
1E00
1E00
1C00
1C00
FFC0
FFC0
FFC0
1C00
1C00
1C00
1C00
1C00
1C00
1C00
1C00
1C00
1C00
1C00
1C00
1C00
1C00
1C00
ENDCHAR
STARTCHAR g
ENCODING 103
SWIDTH 566 0
DWIDTH 19 0
BBX 16 25 1 -7
BITMAP
07CF
1FFF
3FFF
3E3F
780F
780F
780F
F00F
F00F
F00F
700F
780F
780F
780F
3E3F
3FFF
1FFF
07CF
000F
000F
101E
3C3E
7FFC
1FF8
07E0
ENDCHAR
STARTCHAR h
ENCODING 104
SWIDTH 555 0
DWIDTH 18 0
BBX 14 25 2 0
BITMAP
F000
F000
F000
F000
F000
F000
F000
F3E0
FFF8
FFF8
F87C
F03C
F03C
F03C
F03C
F03C
F03C
F03C
F03C
F03C
F03C
F03C
F03C
F03C
F03C
ENDCHAR
STARTCHAR i
ENCODING 105
SWIDTH 255 0
DWIDTH 8 0
BBX 4 24 2 0
BITMAP
70
F0
F0
F0
00
00
F0
F0
F0
F0
F0
F0
F0
F0
F0
F0
F0
F0
F0
F0
F0
F0
F0
F0
ENDCHAR
STARTCHAR j
ENCODING 106
SWIDTH 250 0
DWIDTH 8 0
BBX 7 31 -1 -7
BITMAP
1C
1E
1E
1E
00
00
1E
1E
1E
1E
1E
1E
1E
1E
1E
1E
1E
1E
1E
1E
1E
1E
1E
1E
1E
1E
1E
3E
FC
FC
F0
ENDCHAR
STARTCHAR k
ENCODING 107
SWIDTH 521 0
DWIDTH 17 0
BBX 15 25 2 0
BITMAP
F000
F000
F000
F000
F000
F000
F000
F03E
F078
F0F8
F1F0
F3E0
F7C0
FF80
FF00
FF80
FFC0
FBC0
FBE0
F1F0
F0F0
F0F8
F07C
F03C
F01E
ENDCHAR
STARTCHAR l
ENCODING 108
SWIDTH 255 0
DWIDTH 8 0
BBX 4 25 2 0
BITMAP
F0
F0
F0
F0
F0
F0
F0
F0
F0
F0
F0
F0
F0
F0
F0
F0
F0
F0
F0
F0
F0
F0
F0
F0
F0
ENDCHAR
STARTCHAR m
ENCODING 109
SWIDTH 870 0
DWIDTH 29 0
BBX 25 18 2 0
BITMAP
F3F0FC00
F7F9FE00
FFFFFF00
F87F0F00
F03E0780
F03C0780
F01C0780
F01C0780
F01C0780
F01C0780
F01C0780
F01C0780
F01C0780
F01C0780
F01C0780
F01C0780
F01C0780
F01C0780
ENDCHAR
STARTCHAR n
ENCODING 110
SWIDTH 556 0
DWIDTH 18 0
BBX 14 18 2 0
BITMAP
E3E0
FFF8
FFF8
F87C
F03C
F03C
F03C
F03C
F03C
F03C
F03C
F03C
F03C
F03C
F03C
F03C
F03C
F03C
ENDCHAR
STARTCHAR o
ENCODING 111
SWIDTH 569 0
DWIDTH 19 0
BBX 17 18 1 0
BITMAP
03E000
0FF800
1FFC00
3E3E00
781F00
780F00
780F00
F00780
F00780
F00780
F00780
780F00
780F00
780F00
3E3E00
1FFC00
0FF800
03E000
ENDCHAR
STARTCHAR p
ENCODING 112
SWIDTH 562 0
DWIDTH 19 0
BBX 16 25 2 -7
BITMAP
F3E0
F7F8
FFFC
FC7C
F03E
F01E
F01E
F00E
F00E
F00F
F01E
F01E
F01E
F03E
FC7C
FFFC
FFF8
F3E0
F000
F000
F000
F000
F000
F000
F000
ENDCHAR
STARTCHAR q
ENCODING 113
SWIDTH 567 0
DWIDTH 19 0
BBX 16 25 1 -7
BITMAP
07CF
1FEF
3FFF
3C3F
781F
780F
780F
F00F
F00F
F00F
F00F
780F
780F
781F
3C3F
3FFF
1FEF
07CF
000F
000F
000F
000F
000F
000F
000F
ENDCHAR
STARTCHAR r
ENCODING 114
SWIDTH 351 0
DWIDTH 12 0
BBX 9 18 2 0
BITMAP
F380
F780
FF80
FC00
F800
F000
F000
F000
F000
F000
F000
F000
F000
F000
F000
F000
F000
F000
ENDCHAR
STARTCHAR s
ENCODING 115
SWIDTH 516 0
DWIDTH 17 0
BBX 15 18 1 0
BITMAP
07E0
1FF8
3FF8
7C7C
783C
781C
7800
7F00
3FF0
0FF8
01FC
003C
F01E
F01E
783C
7FFC
3FF8
0FE0
ENDCHAR
STARTCHAR t
ENCODING 116
SWIDTH 332 0
DWIDTH 11 0
BBX 10 22 0 0
BITMAP
1E00
1E00
1E00
1E00
FFC0
FFC0
FFC0
1E00
1E00
1E00
1E00
1E00
1E00
1E00
1E00
1E00
1E00
1E00
1E00
1FC0
0FC0
07C0
ENDCHAR
STARTCHAR u
ENCODING 117
SWIDTH 555 0
DWIDTH 18 0
BBX 14 18 2 0
BITMAP
F03C
F03C
F03C
F03C
F03C
F03C
F03C
F03C
F03C
F03C
F03C
F03C
F03C
F03C
F87C
7FFC
7FFC
1F3C
ENDCHAR
STARTCHAR v
ENCODING 118
SWIDTH 494 0
DWIDTH 16 0
BBX 16 18 0 0
BITMAP
F00F
781E
781E
781E
3C3C
3C3C
3C3C
1C38
1E78
1E78
0E70
0FF0
0FF0
07E0
07E0
07E0
03C0
03C0
ENDCHAR
STARTCHAR w
ENCODING 119
SWIDTH 743 0
DWIDTH 25 0
BBX 23 18 1 0
BITMAP
F0381E
F0381E
F07C1E
707C1C
787C3C
78FE3C
78EE38
38EE38
3DEE78
3DC778
1DC770
1DC770
1F83F0
1F83F0
0F83E0
0F83E0
0F01E0
0F01E0
ENDCHAR
STARTCHAR x
ENCODING 120
SWIDTH 502 0
DWIDTH 17 0
BBX 16 18 0 0
BITMAP
781F
3C1E
3C3C
1E3C
1E78
0FF8
07F0
07E0
03E0
03E0
07F0
0FF0
0F78
1E78
1E3C
3C3E
7C1E
F80F
ENDCHAR
STARTCHAR y
ENCODING 121
SWIDTH 486 0
DWIDTH 16 0
BBX 16 25 0 -7
BITMAP
F81F
781E
781E
781E
3C3C
3C3C
3C3C
1E78
1E78
1E78
0F70
0FF0
0FF0
07E0
07E0
07E0
03C0
03C0
03C0
0380
0780
0F00
3F00
3E00
3C00
ENDCHAR
STARTCHAR z
ENCODING 122
SWIDTH 502 0
DWIDTH 17 0
BBX 14 18 1 0
BITMAP
FFFC
FFFC
FFFC
0078
00F8
01F0
01E0
03E0
07C0
0780
0F00
1F00
3E00
3C00
7C00
FFFC
FFFC
FFFC
ENDCHAR
ENDFONT
